<?xml version="1.0" encoding="utf-8"?>
<!-- Generator: Adobe Illustrator 24.1.0, SVG Export Plug-In . SVG Version: 6.00 Build 0)  -->
<svg version="1.1" id="katman_1" xmlns="http://www.w3.org/2000/svg" xmlns:xlink="http://www.w3.org/1999/xlink" x="0px" y="0px"
	 viewBox="0 0 83 83" style="enable-background:new 0 0 83 83;" xml:space="preserve">
<style type="text/css">
	.st0{fill:url(#SVGID_1_);}
	.st1{fill:#FFFFFF;}
	.st2{fill:url(#SVGID_2_);}
</style>
<linearGradient id="SVGID_1_" gradientUnits="userSpaceOnUse" x1="186.3969" y1="-99.164" x2="292.5336" y2="-46.228">
	<stop  offset="0" style="stop-color:#E61675"/>
	<stop  offset="1" style="stop-color:#2B3079"/>
</linearGradient>
<circle class="st0" cx="233.82" cy="-75.51" r="36.49"/>
<path class="st1" d="M232.67-58.5c-2.37,0-4.62-1.25-5.86-3.27l-6.49-10.52l-0.01-0.04l-0.02-0.02c-0.31-0.48-0.47-1.06-0.47-1.66
	c0-1.73,1.41-3.14,3.14-3.14c0.57,0,1.13,0.15,1.6,0.44l0.02,0.01c0.01,0.01,0.03,0.02,0.05,0.03l3.46,2.18v-14.89
	c0-1.73,1.41-3.14,3.14-3.14c1.73,0,3.14,1.41,3.14,3.14v6.16l0.32-0.11c0.34-0.12,0.69-0.18,1.04-0.18c1.18,0,2.25,0.66,2.79,1.72
	l0.11,0.21l0.21-0.1c0.43-0.21,0.9-0.32,1.39-0.32c1.18,0,2.25,0.66,2.79,1.72l0.11,0.21l0.21-0.1c0.43-0.21,0.9-0.32,1.39-0.32
	c1.73,0,3.14,1.41,3.14,3.14v12c0,3.8-3.09,6.88-6.88,6.88H232.67z M228.32-62.7c0.93,1.5,2.59,2.43,4.35,2.43h8.27
	c2.82,0,5.11-2.29,5.11-5.11v-12c0-0.75-0.61-1.36-1.36-1.36c-0.75,0-1.36,0.61-1.36,1.36v3c0,0.49-0.4,0.89-0.89,0.89
	c-0.49,0-0.89-0.4-0.89-0.89v-4.5c0-0.75-0.61-1.36-1.36-1.36s-1.36,0.61-1.36,1.36v4.5c0,0.49-0.4,0.89-0.89,0.89
	s-0.89-0.4-0.89-0.89v-6c0-0.75-0.61-1.36-1.36-1.36s-1.36,0.61-1.36,1.36v6c0,0.49-0.4,0.89-0.89,0.89s-0.89-0.4-0.89-0.89v-15
	c0-0.75-0.61-1.36-1.36-1.36c-0.75,0-1.36,0.61-1.36,1.36v16.5c0,0,0,0.06,0,0.07c0,0.02,0,0.04-0.01,0.06c0,0.01,0,0.02,0,0.03
	c0,0.02-0.01,0.04-0.01,0.06c0,0.01,0,0.02-0.01,0.02c-0.01,0.02-0.01,0.04-0.02,0.06l-0.01,0.02c-0.01,0.02-0.02,0.04-0.03,0.06
	l-0.01,0.02c-0.01,0.02-0.02,0.04-0.04,0.07l-0.01,0.01c-0.02,0.02-0.03,0.04-0.04,0.06l-0.01,0.01c-0.02,0.02-0.03,0.04-0.05,0.06
	l-0.01,0.01c-0.02,0.02-0.04,0.04-0.06,0.05l-0.01,0.01c-0.15,0.13-0.34,0.2-0.54,0.21c0,0-0.03,0-0.03,0c-0.01,0-0.02,0-0.03,0
	l-0.03,0c-0.03,0-0.05,0-0.07-0.01l-0.02,0c-0.02,0-0.05-0.01-0.07-0.01l-0.02-0.01c-0.02-0.01-0.04-0.01-0.06-0.02
	c-0.01,0-0.02-0.01-0.03-0.01c-0.02-0.01-0.03-0.01-0.05-0.02c-0.01-0.01-0.02-0.01-0.03-0.02c-0.01-0.01-0.03-0.02-0.04-0.02
	c-0.01,0-0.02-0.01-0.02-0.01l-4.79-3.02l0,0c-0.01-0.01-0.02-0.01-0.03-0.02l-0.01-0.01c-0.2-0.12-0.44-0.19-0.69-0.19
	c-0.75,0-1.36,0.61-1.36,1.36c0,0.25,0.06,0.49,0.18,0.68l0,0.01l0.01,0.01c0,0.01,0.01,0.01,0.01,0.02l0.01,0.02L228.32-62.7z"/>
<linearGradient id="SVGID_2_" gradientUnits="userSpaceOnUse" x1="-12.44" y1="14.5972" x2="108.2736" y2="74.8036">
	<stop  offset="0" style="stop-color:#E61675"/>
	<stop  offset="1" style="stop-color:#2B3079"/>
</linearGradient>
<circle class="st2" cx="41.5" cy="41.5" r="41.5"/>
<path class="st1" d="M59.63,40.29h-2.08c-0.59-7.92-6.93-14.26-14.85-14.85v-2.08c0-0.67-0.54-1.21-1.21-1.21s-1.21,0.54-1.21,1.21
	v2.08c-7.92,0.59-14.26,6.93-14.85,14.85h-2.08c-0.67,0-1.21,0.54-1.21,1.21c0,0.67,0.54,1.21,1.21,1.21h2.08
	c0.59,7.92,6.93,14.26,14.85,14.85v2.08c0,0.67,0.54,1.21,1.21,1.21s1.21-0.54,1.21-1.21v-2.08c7.92-0.59,14.26-6.93,14.85-14.85
	h2.08c0.67,0,1.21-0.54,1.21-1.21C60.84,40.83,60.3,40.29,59.63,40.29z M55.14,40.29h-4.05c-0.55-4.37-4.01-7.83-8.38-8.38v-4.05
	C49.3,28.44,54.56,33.7,55.14,40.29z M40.29,40.29h-5.94c0.51-3.03,2.9-5.42,5.94-5.94V40.29z M40.29,42.71v5.94
	c-3.03-0.51-5.42-2.9-5.94-5.94H40.29z M42.71,42.71h5.94c-0.51,3.03-2.9,5.42-5.94,5.94V42.71z M42.71,40.29v-5.94
	c3.03,0.51,5.42,2.9,5.94,5.94H42.71z M40.29,27.86v4.05c-4.37,0.55-7.83,4.01-8.38,8.38h-4.05C28.44,33.7,33.7,28.44,40.29,27.86z
	 M27.86,42.71h4.05c0.55,4.37,4.01,7.83,8.38,8.38v4.05C33.7,54.56,28.44,49.3,27.86,42.71z M42.71,55.14v-4.05
	c4.37-0.55,7.83-4.01,8.38-8.38h4.05C54.56,49.3,49.3,54.56,42.71,55.14z"/>
</svg>
