<?xml version="1.0" encoding="utf-8"?>
<!-- Generator: Adobe Illustrator 24.1.0, SVG Export Plug-In . SVG Version: 6.00 Build 0)  -->
<svg version="1.1" id="katman_1" xmlns="http://www.w3.org/2000/svg" xmlns:xlink="http://www.w3.org/1999/xlink" x="0px" y="0px"
	 viewBox="0 0 83 83" style="enable-background:new 0 0 83 83;" xml:space="preserve">
<style type="text/css">
	.st0{fill:url(#SVGID_1_);}
	.st1{fill:#FFFFFF;}
	.st2{fill:url(#SVGID_2_);}
</style>
<linearGradient id="SVGID_1_" gradientUnits="userSpaceOnUse" x1="186.3969" y1="-99.164" x2="292.5336" y2="-46.228">
	<stop  offset="0" style="stop-color:#E61675"/>
	<stop  offset="1" style="stop-color:#2B3079"/>
</linearGradient>
<circle class="st0" cx="233.82" cy="-75.51" r="36.49"/>
<path class="st1" d="M232.67-58.5c-2.37,0-4.62-1.25-5.86-3.27l-6.49-10.52l-0.01-0.04l-0.02-0.02c-0.31-0.48-0.47-1.06-0.47-1.66
	c0-1.73,1.41-3.14,3.14-3.14c0.57,0,1.13,0.15,1.6,0.44l0.02,0.01c0.01,0.01,0.03,0.02,0.05,0.03l3.46,2.18v-14.89
	c0-1.73,1.41-3.14,3.14-3.14c1.73,0,3.14,1.41,3.14,3.14v6.16l0.32-0.11c0.34-0.12,0.69-0.18,1.04-0.18c1.18,0,2.25,0.66,2.79,1.72
	l0.11,0.21l0.21-0.1c0.43-0.21,0.9-0.32,1.39-0.32c1.18,0,2.25,0.66,2.79,1.72l0.11,0.21l0.21-0.1c0.43-0.21,0.9-0.32,1.39-0.32
	c1.73,0,3.14,1.41,3.14,3.14v12c0,3.8-3.09,6.88-6.88,6.88H232.67z M228.32-62.7c0.93,1.5,2.59,2.43,4.35,2.43h8.27
	c2.82,0,5.11-2.29,5.11-5.11v-12c0-0.75-0.61-1.36-1.36-1.36c-0.75,0-1.36,0.61-1.36,1.36v3c0,0.49-0.4,0.89-0.89,0.89
	c-0.49,0-0.89-0.4-0.89-0.89v-4.5c0-0.75-0.61-1.36-1.36-1.36s-1.36,0.61-1.36,1.36v4.5c0,0.49-0.4,0.89-0.89,0.89
	s-0.89-0.4-0.89-0.89v-6c0-0.75-0.61-1.36-1.36-1.36s-1.36,0.61-1.36,1.36v6c0,0.49-0.4,0.89-0.89,0.89s-0.89-0.4-0.89-0.89v-15
	c0-0.75-0.61-1.36-1.36-1.36c-0.75,0-1.36,0.61-1.36,1.36v16.5c0,0,0,0.06,0,0.07c0,0.02,0,0.04-0.01,0.06c0,0.01,0,0.02,0,0.03
	c0,0.02-0.01,0.04-0.01,0.06c0,0.01,0,0.02-0.01,0.02c-0.01,0.02-0.01,0.04-0.02,0.06l-0.01,0.02c-0.01,0.02-0.02,0.04-0.03,0.06
	l-0.01,0.02c-0.01,0.02-0.02,0.04-0.04,0.07l-0.01,0.01c-0.02,0.02-0.03,0.04-0.04,0.06l-0.01,0.01c-0.02,0.02-0.03,0.04-0.05,0.06
	l-0.01,0.01c-0.02,0.02-0.04,0.04-0.06,0.05l-0.01,0.01c-0.15,0.13-0.34,0.2-0.54,0.21c0,0-0.03,0-0.03,0c-0.01,0-0.02,0-0.03,0
	l-0.03,0c-0.03,0-0.05,0-0.07-0.01l-0.02,0c-0.02,0-0.05-0.01-0.07-0.01l-0.02-0.01c-0.02-0.01-0.04-0.01-0.06-0.02
	c-0.01,0-0.02-0.01-0.03-0.01c-0.02-0.01-0.03-0.01-0.05-0.02c-0.01-0.01-0.02-0.01-0.03-0.02c-0.01-0.01-0.03-0.02-0.04-0.02
	c-0.01,0-0.02-0.01-0.02-0.01l-4.79-3.02l0,0c-0.01-0.01-0.02-0.01-0.03-0.02l-0.01-0.01c-0.2-0.12-0.44-0.19-0.69-0.19
	c-0.75,0-1.36,0.61-1.36,1.36c0,0.25,0.06,0.49,0.18,0.68l0,0.01l0.01,0.01c0,0.01,0.01,0.01,0.01,0.02l0.01,0.02L228.32-62.7z"/>
<linearGradient id="SVGID_2_" gradientUnits="userSpaceOnUse" x1="-12.4816" y1="14.5972" x2="108.2321" y2="74.8036">
	<stop  offset="0" style="stop-color:#E61675"/>
	<stop  offset="1" style="stop-color:#2B3079"/>
</linearGradient>
<circle class="st2" cx="41.46" cy="41.5" r="41.5"/>
<path class="st1" d="M40.15,60.84c-2.7,0-5.25-1.43-6.66-3.72l-7.38-11.97l-0.02-0.05l-0.03-0.02c-0.35-0.55-0.54-1.2-0.54-1.88
	c0-1.97,1.6-3.57,3.57-3.57c0.65,0,1.28,0.17,1.81,0.5l0.02,0.01c0.02,0.01,0.03,0.02,0.05,0.03l3.93,2.48V25.72
	c0-1.97,1.6-3.57,3.57-3.57s3.57,1.6,3.57,3.57v7l0.36-0.13c0.38-0.14,0.78-0.2,1.19-0.2c1.35,0,2.56,0.75,3.18,1.95l0.12,0.24
	l0.24-0.12c0.49-0.24,1.02-0.37,1.58-0.37c1.35,0,2.56,0.75,3.18,1.95l0.12,0.24l0.24-0.12c0.49-0.24,1.02-0.37,1.58-0.37
	c1.97,0,3.57,1.6,3.57,3.57v13.65c0,4.32-3.51,7.83-7.83,7.83H40.15z M35.2,56.07c1.05,1.7,2.95,2.76,4.95,2.76h9.41
	c3.21,0,5.82-2.61,5.82-5.82V39.37c0-0.86-0.7-1.55-1.55-1.55s-1.55,0.7-1.55,1.55v3.41c0,0.56-0.45,1.01-1.01,1.01
	c-0.56,0-1.01-0.45-1.01-1.01v-5.12c0-0.86-0.7-1.55-1.55-1.55s-1.55,0.7-1.55,1.55v5.12c0,0.56-0.45,1.01-1.01,1.01
	c-0.56,0-1.01-0.45-1.01-1.01v-6.82c0-0.86-0.7-1.55-1.55-1.55s-1.55,0.7-1.55,1.55v6.82c0,0.56-0.45,1.01-1.01,1.01
	s-1.01-0.45-1.01-1.01V25.72c0-0.86-0.7-1.55-1.55-1.55s-1.55,0.7-1.55,1.55v18.76c0,0,0,0.07,0,0.08c0,0.02,0,0.04-0.01,0.06
	c0,0.01,0,0.02-0.01,0.03c0,0.02-0.01,0.04-0.01,0.07c0,0.01,0,0.02-0.01,0.03c-0.01,0.02-0.01,0.05-0.02,0.07l-0.01,0.02
	c-0.01,0.02-0.02,0.05-0.03,0.07l-0.01,0.02c-0.01,0.03-0.03,0.05-0.04,0.07l-0.01,0.01c-0.02,0.03-0.03,0.05-0.05,0.07l-0.01,0.01
	c-0.02,0.02-0.04,0.04-0.06,0.06l-0.01,0.01c-0.02,0.02-0.04,0.04-0.06,0.06l-0.01,0.01c-0.17,0.14-0.38,0.23-0.61,0.23
	c0,0-0.03,0-0.04,0c-0.01,0-0.02,0-0.03,0l-0.03,0c-0.03,0-0.06-0.01-0.08-0.01l-0.02,0c-0.03,0-0.05-0.01-0.08-0.02l-0.03-0.01
	c-0.02-0.01-0.04-0.01-0.07-0.02c-0.01,0-0.02-0.01-0.03-0.01c-0.02-0.01-0.04-0.02-0.06-0.03c-0.01-0.01-0.02-0.01-0.04-0.02
	c-0.01-0.01-0.03-0.02-0.05-0.03c-0.01-0.01-0.02-0.01-0.03-0.01l-5.45-3.44l0,0c-0.01-0.01-0.03-0.02-0.04-0.02l-0.01-0.01
	c-0.22-0.14-0.5-0.21-0.79-0.21c-0.86,0-1.55,0.7-1.55,1.55c0,0.28,0.07,0.56,0.2,0.78l0.01,0.01L27.76,44
	c0,0.01,0.01,0.01,0.01,0.02l0.01,0.02L35.2,56.07z"/>
</svg>
