<?xml version="1.0" encoding="utf-8"?>
<!-- Generator: Adobe Illustrator 24.1.0, SVG Export Plug-In . SVG Version: 6.00 Build 0)  -->
<svg version="1.1" id="katman_1" xmlns="http://www.w3.org/2000/svg" xmlns:xlink="http://www.w3.org/1999/xlink" x="0px" y="0px"
	 viewBox="0 0 2409.45 425.2" style="enable-background:new 0 0 2409.45 425.2;" xml:space="preserve">
<style type="text/css">
	.st0{opacity:0.15;}
	.st1{fill:#2B3079;}
</style>
<g class="st0">
	<path class="st1" d="M200.96,425.2L404.99,74.97c4.37-7.48-1.03-16.87-9.69-16.87h-63.6c-4.09,0-7.87,2.22-9.83,5.82L151.75,369.28
		c-0.02,0.03-0.06,0.06-0.08,0.1l-30.61,55.81H200.96z"/>
	<path class="st1" d="M2345.12,425.2c8.77-9.14,16.64-19.21,23.49-30.13c4.68-7.46-0.74-17.17-9.56-17.17h-63.46
		c-3.25,0-6.27,1.47-8.46,3.87c-18.11,19.67-42.83,28.1-74.18,28.1c-48.92,0-82.45-20.9-92.66-60.71
		c-1.82-7.12,3.55-14.09,10.89-14.09h253.93c5.45,0,10.1-3.9,11.05-9.26l0.4-2.3c2.73-12.92,4.08-25.84,4.08-38.76
		c0-95.21-74.81-155.04-167.97-155.04c-112.88,0-198.57,87.04-198.57,193.8c0,40.64,12.36,75.22,33.89,101.71H2345.12z
		 M2135.18,253.21c17.97-29.69,48.75-50.08,90.69-50.08c40.72,0,74.06,17.93,87.02,52.4c2.71,7.23-2.89,14.93-10.61,14.93h-157.62
		C2135.82,270.45,2130.61,260.78,2135.18,253.21z"/>
	<path class="st1" d="M1716.16,425.2h261.36c8.08-14.98,12.46-32.97,12.46-54.1c0-68.01-63.93-85.68-108.8-97.25
		c-35.36-8.84-61.89-16.32-61.89-40.12c0-19.73,18.36-33.32,53.04-33.32c32.33,0,49.92,11.18,54.99,26.93
		c1.48,4.62,5.77,7.74,10.62,7.74h59.91c6.81,0,11.92-6,11.13-12.76c-6.77-58.26-60.36-92.64-135.29-92.64
		c-79.56,0-136.01,38.08-136.01,114.92c0,66.64,59.84,82.29,109.48,95.21c31.29,8.15,61.21,14.96,61.21,40.8
		c0,19.72-18.36,32.64-56.45,32.64c-37.97,0-60.43-11.91-65.52-29.85c-1.38-4.85-5.74-8.22-10.76-8.22h-60.15
		c-6.55,0-11.87,5.61-11.19,12.12C1705.76,401.39,1709.81,414.05,1716.16,425.2z"/>
	<path class="st1" d="M62.67,425.2h54.55l14.3-57.48c-0.23-0.65-0.54-1.24-0.66-1.98L93.67,146.6c-0.91-5.41-5.59-9.36-11.06-9.36
		H20.02c-7.05,0-12.35,6.44-11,13.36L62.67,425.2z"/>
	<path class="st1" d="M1587.94,425.2l23.33-18.66l-13.84,18.66h59.04l19.48-98.3c2.71-14.29,4.08-27.21,4.08-40.81
		c0-97.25-72.76-156.4-166.61-156.4c-116.29,0-201.29,91.12-201.29,198.57c0,39.99,11.66,72.34,30.34,96.95H1587.94z
		 M1508.65,205.16c54.39,0,89.08,33.99,89.08,87.73c0,59.85-42.84,114.92-110.84,114.92c-55.77,0-90.45-36.72-90.45-90.44
		C1396.44,254.8,1442.68,205.16,1508.65,205.16z"/>
	<path class="st1" d="M1212.94,425.2c36.04-36.38,57.16-86.6,57.16-141.16c0-103.36-76.16-154.36-150.97-154.36
		c-32.25,0-61.13,9.33-85.29,26.33c-0.27,0.21-0.58,0.27-0.88,0.44l-62.43,42.27l45.97-52.65c0.03-0.49-0.03-0.97,0.06-1.47
		l14.11-73.14c1.36-6.93-3.96-13.36-11-13.36h-58.75c-5.37,0-9.99,3.8-11,9.08l-41.58,214.83c-2.73,14.28-4.08,27.2-4.08,37.4
		c0,42.63,12.93,78.54,34.92,105.78H1212.94z M1096.69,205.16c54.41,0,89.77,33.32,89.77,88.41c0,60.52-43.53,114.24-110.84,114.24
		c-54.41,0-90.45-34.68-90.45-89.76C985.17,258.21,1027.34,205.16,1096.69,205.16z"/>
	<path class="st1" d="M386.06,425.2h277.12c8.76-9.14,16.63-19.21,23.48-30.13c4.69-7.46-0.74-17.17-9.54-17.17h-63.47
		c-3.24,0-6.26,1.47-8.46,3.87c-18.1,19.67-42.83,28.1-74.17,28.1c-48.93,0-82.45-20.9-92.66-60.71
		c-1.82-7.12,3.53-14.09,10.89-14.09h253.93c5.44,0,10.1-3.9,11.05-9.26l0.4-2.3c2.73-12.92,4.08-25.84,4.08-38.76
		c0-95.21-74.81-155.04-167.97-155.04c-112.88,0-198.57,87.04-198.57,193.8C352.18,364.13,364.54,398.7,386.06,425.2z
		 M453.26,253.21c17.97-29.69,48.75-50.08,90.69-50.08c40.72,0,74.05,17.93,87.01,52.4c2.71,7.23-2.88,14.93-10.61,14.93H462.74
		C453.9,270.45,448.67,260.78,453.26,253.21z"/>
	<path class="st1" d="M826.74,425.2l68.59-353.74c1.35-6.92-3.96-13.35-11-13.35h-58.08c-5.37,0-9.98,3.81-11,9.08L745.82,425.2
		H826.74z"/>
</g>
</svg>
