<?xml version="1.0" encoding="utf-8"?>
<!-- Generator: Adobe Illustrator 24.1.0, SVG Export Plug-In . SVG Version: 6.00 Build 0)  -->
<svg version="1.1" id="katman_1" xmlns="http://www.w3.org/2000/svg" xmlns:xlink="http://www.w3.org/1999/xlink" x="0px" y="0px"
	 viewBox="0 0 357 80" style="enable-background:new 0 0 357 80;" xml:space="preserve">
<style type="text/css">
	.st0{fill:#2B307A;}
</style>
<path class="st0" d="M111.17,41.9c0,1.75-0.18,3.5-0.55,5.25l-0.05,0.31c-0.13,0.73-0.76,1.26-1.5,1.26h-34.4
	c-1,0-1.72,0.94-1.48,1.91c1.38,5.39,5.92,8.22,12.55,8.22c4.25,0,7.6-1.14,10.05-3.81c0.3-0.32,0.71-0.52,1.15-0.52h8.6
	c1.19,0,1.93,1.32,1.29,2.33c-4.64,7.39-12.68,11.95-22.47,11.95c-13.26,0-22.85-8.47-22.85-21.65c0-14.46,11.61-26.25,26.9-26.25
	C101.03,20.9,111.17,29,111.17,41.9z M76.49,39.96h21.35c1.05,0,1.8-1.04,1.44-2.02c-1.75-4.67-6.27-7.1-11.79-7.1
	c-5.68,0-9.85,2.76-12.28,6.78C74.59,38.65,75.29,39.96,76.49,39.96z M125.73,11.2h7.87c0.96,0,1.67,0.87,1.49,1.81l-10.35,53.36
	c-0.14,0.71-0.76,1.23-1.49,1.23h-7.87c-0.96,0-1.67-0.87-1.49-1.81l10.35-53.36C124.38,11.72,125,11.2,125.73,11.2z M276.32,35.17
	c-0.66,0-1.24-0.42-1.44-1.05c-0.69-2.14-3.07-3.65-7.45-3.65c-4.7,0-7.18,1.84-7.18,4.51c0,3.22,3.59,4.24,8.38,5.43
	c6.08,1.57,14.74,3.96,14.74,13.17c0,10.41-7.83,15.2-19.16,15.2c-11.09,0-18.67-4.64-19.54-13c-0.09-0.88,0.63-1.64,1.52-1.64h8.15
	c0.68,0,1.27,0.46,1.46,1.11c0.69,2.43,3.73,4.04,8.88,4.04c5.16,0,7.65-1.75,7.65-4.42c0-3.5-4.05-4.42-8.29-5.53
	c-6.72-1.75-14.83-3.87-14.83-12.9c0-10.41,7.65-15.57,18.42-15.57c10.15,0,17.41,4.66,18.33,12.55c0.11,0.92-0.59,1.73-1.51,1.73
	H276.32z M339,41.9c0,1.75-0.18,3.5-0.55,5.25l-0.05,0.31c-0.13,0.73-0.76,1.26-1.5,1.26h-34.4c-1,0-1.72,0.94-1.48,1.91
	c1.38,5.39,5.92,8.22,12.55,8.22c4.25,0,7.59-1.14,10.05-3.81c0.3-0.32,0.71-0.52,1.15-0.52h8.6c1.19,0,1.93,1.32,1.29,2.33
	c-4.64,7.39-12.68,11.95-22.47,11.95c-13.27,0-22.85-8.47-22.85-21.65c0-14.46,11.61-26.25,26.9-26.25C328.87,20.9,339,29,339,41.9z
	 M304.33,39.96h21.35c1.05,0,1.8-1.04,1.44-2.02c-1.75-4.67-6.27-7.1-11.79-7.1c-5.68,0-9.85,2.76-12.28,6.78
	C302.42,38.65,303.13,39.96,304.33,39.96z M67.35,11.2h-8.62c-0.55,0-1.07,0.3-1.33,0.79L34.36,53.35c0,0.01-0.01,0.01-0.01,0.01
	l-5.1,9.29l2.37-9.52c-0.03-0.09-0.07-0.17-0.09-0.27L26.5,23.19c-0.12-0.73-0.76-1.27-1.5-1.27h-8.48c-0.96,0-1.67,0.87-1.49,1.81
	l8.33,42.64c0.14,0.71,0.76,1.23,1.49,1.23h11.42c0.54,0,1.04-0.29,1.31-0.75l31.09-53.36C69.26,12.47,68.53,11.2,67.35,11.2z
	 M165.41,20.9c-4.37,0-8.28,1.26-11.55,3.57c-0.04,0.03-0.08,0.04-0.12,0.06l-8.46,5.73l6.23-7.13c0-0.07-0.01-0.13,0.01-0.2
	l1.91-9.91c0.18-0.94-0.54-1.81-1.49-1.81h-7.96c-0.73,0-1.35,0.52-1.49,1.23l-5.63,29.1c-0.37,1.93-0.55,3.68-0.55,5.07
	c0,13.63,9.76,22.2,22.38,22.2c15.94,0,27.18-12.34,27.18-26.99C185.86,27.8,175.54,20.9,165.41,20.9z M159.51,58.57
	c-7.37,0-12.25-4.7-12.25-12.16c0-8.11,5.71-15.29,15.11-15.29c7.37,0,12.16,4.51,12.16,11.98
	C174.53,51.29,168.63,58.57,159.51,58.57z M218.81,20.9c-15.75,0-27.27,12.34-27.27,26.9c0,13.91,10.41,21,20.63,21
	c4.67,0,9.01-1.5,12.42-4.44c0.06-0.05,0.13-0.09,0.19-0.14l7.28-5.82l-4.77,6.43c-0.08,0.35-0.16,0.75-0.2,0.95
	c-0.19,0.94,0.53,1.81,1.49,1.81h7.04c0.73,0,1.35-0.51,1.49-1.22l3.72-18.77c0.37-1.93,0.55-3.68,0.55-5.53
	C241.38,28.91,231.53,20.9,218.81,20.9z M215.22,58.57c-7.55,0-12.25-4.97-12.25-12.25c0-8.47,6.26-15.2,15.2-15.2
	c7.37,0,12.07,4.61,12.07,11.88C230.24,51.11,224.43,58.57,215.22,58.57z"/>
</svg>
